<svg width="70" height="75" viewBox="0 0 70 75" fill="none" xmlns="http://www.w3.org/2000/svg">
<path d="M35.738 24.387C26.1636 10.1736 11.1853 8.96442 5.38647 10.445V55.3555L35.738 70.9015L66.7068 55.9724V11.0619C54.1712 8.29829 40.8378 18.7938 35.738 24.387Z" fill="#202020" stroke="black"/>
<path d="M36.1988 72.3181C29.1123 64.516 19.5018 59.4624 9.05741 58.0458C7.86861 57.9143 6.77068 57.3471 5.9755 56.4536C5.18033 55.5601 4.7443 54.4038 4.75155 53.2078V14.2615C4.75151 13.5627 4.90285 12.8722 5.19516 12.2375C5.48747 11.6027 5.91382 11.0388 6.44487 10.5846C6.96656 10.1387 7.57718 9.80879 8.23615 9.61694C8.89512 9.42508 9.58737 9.37563 10.2669 9.47187C20.2541 11.1294 29.3903 16.1066 36.1988 23.599V72.3181Z" stroke="#202020" stroke-width="4" stroke-linecap="round" stroke-linejoin="round"/>
<path d="M36.1987 72.3181C43.2853 64.516 52.8958 59.4624 63.3402 58.0458C64.529 57.9143 65.6269 57.3471 66.4221 56.4536C67.2172 55.5601 67.6533 54.4038 67.646 53.2078V14.2615C67.6461 13.5627 67.4947 12.8722 67.2024 12.2375C66.9101 11.6027 66.4837 11.0388 65.9527 10.5846C65.431 10.1387 64.8204 9.80879 64.1614 9.61694C63.5024 9.42508 62.8102 9.37563 62.1306 9.47187C52.1435 11.1294 43.0072 16.1066 36.1987 23.599V72.3181Z" stroke="#202020" stroke-width="4" stroke-linecap="round" stroke-linejoin="round"/>
<path d="M32.9861 17.2811C23.4116 3.06761 8.43335 1.85846 2.63452 3.33902V48.2495L32.9861 63.7956L63.9548 48.8665V3.95593C51.4193 1.19233 38.0859 11.6878 32.9861 17.2811Z" fill="#89BFFF"/>
<path d="M33.4474 65.2121C26.3608 57.4101 16.7503 52.3564 6.30595 50.9399C5.11715 50.8083 4.01921 50.2411 3.22404 49.3476C2.42887 48.4542 1.99283 47.2979 2.00009 46.1018V7.15558C2.00004 6.45677 2.15138 5.76624 2.44369 5.1315C2.73601 4.49677 3.16235 3.93289 3.6934 3.47866C4.2151 3.0327 4.82571 2.70283 5.48468 2.51098C6.14366 2.31913 6.83591 2.26968 7.51546 2.36591C17.5026 4.02346 26.6389 9.00069 33.4474 16.493V65.2121Z" stroke="#202020" stroke-width="4" stroke-linecap="round" stroke-linejoin="round"/>
<path d="M33.4473 65.2121C40.5338 57.4101 50.1443 52.3564 60.5887 50.9399C61.7775 50.8083 62.8754 50.2411 63.6706 49.3476C64.4658 48.4542 64.9018 47.2979 64.8945 46.1018V7.15558C64.8946 6.45677 64.7433 5.76624 64.4509 5.1315C64.1586 4.49677 63.7323 3.93289 63.2012 3.47866C62.6795 3.0327 62.0689 2.70283 61.41 2.51098C60.751 2.31913 60.0587 2.26968 59.3792 2.36591C49.392 4.02346 40.2558 9.00069 33.4473 16.493V65.2121Z" stroke="#202020" stroke-width="4" stroke-linecap="round" stroke-linejoin="round"/>
</svg>
