<svg width="86" height="79" viewBox="0 0 86 79" fill="none" xmlns="http://www.w3.org/2000/svg">
<path d="M49.9539 8.05739L58.9027 26.1238C59.1062 26.5824 59.4264 26.9796 59.8313 27.2759C60.2362 27.5721 60.7116 27.7571 61.2103 27.8123L80.9652 30.739C81.5372 30.8125 82.0764 31.0472 82.52 31.4158C82.9636 31.7843 83.2931 32.2715 83.4702 32.8203C83.6472 33.3692 83.6645 33.9571 83.5199 34.5154C83.3753 35.0736 83.0748 35.5793 82.6536 35.9732L68.4143 50.0999C68.0509 50.4394 67.7782 50.8644 67.6209 51.3363C67.4636 51.8081 67.4268 52.3117 67.5138 52.8014L70.947 72.6689C71.0464 73.2398 70.9836 73.8271 70.7657 74.364C70.5478 74.9009 70.1835 75.3659 69.7144 75.7061C69.2452 76.0462 68.69 76.2478 68.1119 76.288C67.5339 76.3281 66.9561 76.2052 66.4445 75.9332L48.6594 66.5342C48.204 66.3106 47.7034 66.1944 47.1961 66.1944C46.6888 66.1944 46.1882 66.3106 45.7328 66.5342L27.9477 75.9332C27.4361 76.2052 26.8583 76.3281 26.2802 76.288C25.7022 76.2478 25.147 76.0462 24.6778 75.7061C24.2087 75.3659 23.8444 74.9009 23.6265 74.364C23.4086 73.8271 23.3458 73.2398 23.4452 72.6689L26.8784 52.5763C26.9654 52.0866 26.9286 51.583 26.7713 51.1111C26.614 50.6393 26.3413 50.2143 25.9779 49.8748L11.5697 35.9732C11.1435 35.5685 10.8437 35.0489 10.7067 34.4773C10.5697 33.9057 10.6015 33.3066 10.798 32.7527C10.9946 32.1988 11.3475 31.7137 11.8142 31.3563C12.2808 30.9989 12.841 30.7845 13.427 30.739L33.1819 27.8123C33.6806 27.7571 34.156 27.5721 34.5609 27.2759C34.9658 26.9796 35.286 26.5824 35.4895 26.1238L44.4383 8.05739C44.682 7.5312 45.0711 7.08572 45.5598 6.77351C46.0484 6.4613 46.6162 6.29541 47.1961 6.29541C47.776 6.29541 48.3438 6.4613 48.8324 6.77351C49.3211 7.08572 49.7102 7.5312 49.9539 8.05739Z" fill="#202020" stroke="#202020" stroke-width="4.35936" stroke-linecap="round" stroke-linejoin="round"/>
<path d="M42.3309 4.0801L51.2797 22.1466C51.4832 22.6051 51.8034 23.0023 52.2082 23.2986C52.6131 23.5948 53.0886 23.7798 53.5872 23.835L73.3421 26.7617C73.9141 26.8352 74.4534 27.0699 74.897 27.4385C75.3405 27.807 75.6701 28.2942 75.8471 28.843C76.0242 29.3919 76.0414 29.9798 75.8968 30.5381C75.7522 31.0963 75.4518 31.602 75.0306 31.9959L60.7913 46.1226C60.4279 46.4621 60.1551 46.8871 59.9978 47.359C59.8406 47.8308 59.8038 48.3344 59.8908 48.8241L63.324 68.6916C63.4234 69.2625 63.3605 69.8498 63.1426 70.3867C62.9247 70.9236 62.5605 71.3886 62.0913 71.7288C61.6222 72.0689 61.067 72.2705 60.4889 72.3107C59.9108 72.3508 59.3331 72.2279 58.8214 71.9559L41.0364 62.5569C40.581 62.3333 40.0804 62.2171 39.573 62.2171C39.0657 62.2171 38.5651 62.3333 38.1097 62.5569L20.3247 71.9559C19.813 72.2279 19.2353 72.3508 18.6572 72.3107C18.0791 72.2705 17.5239 72.0689 17.0548 71.7288C16.5856 71.3886 16.2214 70.9236 16.0035 70.3867C15.7856 69.8498 15.7227 69.2625 15.8221 68.6916L19.2553 48.599C19.3423 48.1093 19.3055 47.6057 19.1483 47.1338C18.991 46.662 18.7182 46.237 18.3548 45.8975L3.94667 31.9959C3.52041 31.5912 3.22064 31.0716 3.08367 30.5C2.9467 29.9284 2.97842 29.3293 3.17498 28.7754C3.37153 28.2215 3.72449 27.7364 4.19111 27.379C4.65772 27.0216 5.21796 26.8072 5.80397 26.7617L25.5589 23.835C26.0575 23.7798 26.533 23.5948 26.9379 23.2986C27.3427 23.0023 27.6629 22.6051 27.8664 22.1466L36.8152 4.0801C37.0589 3.55391 37.4481 3.10842 37.9367 2.79622C38.4254 2.48401 38.9932 2.31812 39.573 2.31812C40.1529 2.31812 40.7207 2.48401 41.2094 2.79622C41.698 3.10842 42.0872 3.55391 42.3309 4.0801Z" fill="#FFDE9F" stroke="#202020" stroke-width="4.35936" stroke-linecap="round" stroke-linejoin="round"/>
</svg>
