<svg width="1440" height="139" viewBox="0 0 1440 139" fill="none" xmlns="http://www.w3.org/2000/svg">
<g clip-path="url(#clip0_171_1828)">
<path d="M1440 49.2698C1440 49.2698 1402.92 71.1111 1368.89 72.6349C1334.35 74.1587 1304.89 72.6349 1262.73 65.0159C1205.33 54.8571 1094.6 13.7143 1035.68 36.0635C976.762 58.4127 974.222 59.4286 944.254 73.6508C910.73 89.9048 842.667 122.413 758.349 120.889C668.444 119.365 505.397 36.5714 438.349 40.6349C431.238 41.1429 404.825 44.6984 385.016 50.7936C365.714 56.8889 337.27 70.0952 298.667 74.6667C282.413 76.6984 256.508 80.254 226.54 79.2381C218.921 78.7302 194.54 77.2063 165.587 71.1111C136.635 65.0159 109.714 55.3651 85.3333 52.3175C33.0159 46.7302 0 54.8571 0 54.8571V0H1440V49.2698ZM1324.7 57.3968C1321.14 52.3175 1314.54 55.3651 1302.86 55.3651C1291.17 55.3651 1271.87 49.2698 1273.4 49.7778C1274.92 50.2857 1289.14 57.3968 1303.87 59.4286C1319.11 61.9683 1327.75 62.4762 1324.7 57.3968ZM1231.24 43.6825C1231.24 43.6825 1219.05 42.6667 1202.79 39.1111C1186.54 35.0476 1150.48 24.8889 1126.1 21.3333C1084.44 15.746 1045.84 21.3333 1049.4 21.8413C1053.46 22.3492 1098.16 18.7936 1138.79 27.4286C1155.56 30.9841 1186.03 38.6032 1201.78 41.1429C1218.54 44.1905 1231.24 43.6825 1231.24 43.6825ZM940.698 43.1746C949.333 39.619 873.143 67.0476 846.73 74.1587C836.063 77.2063 815.238 82.2857 795.937 84.3175C776.127 86.3492 750.73 86.3492 751.238 86.8571C751.238 87.873 780.698 90.9206 808.127 86.8571C835.556 82.7936 834.54 81.2698 846.73 78.7302C866.032 74.6667 932.064 46.7302 940.698 43.1746ZM1011.3 35.0476C1012.32 35.0476 1007.24 33.0159 986.921 40.6349C966.603 48.254 952.889 58.4127 951.873 59.4286C950.857 59.9365 969.651 50.2857 985.397 44.1905C1000.63 38.0952 1010.79 35.0476 1011.3 35.0476ZM1437.46 30.4762C1436.95 30.9841 1427.81 36.0635 1413.08 43.1746C1398.35 50.2857 1378.03 57.3968 1379.05 56.8889C1380.06 56.8889 1396.83 53.8413 1416.63 44.1905C1436.44 34.5397 1437.97 29.9683 1437.46 30.4762ZM158.984 58.9206C159.492 57.9048 149.333 57.9048 136.127 52.8254C122.921 47.746 108.698 44.6984 96.5079 42.6667C76.1905 38.6032 37.0794 43.1746 39.1111 43.6825C40.6349 44.1905 80.7619 42.1587 102.603 47.2381C113.778 49.7778 114.794 49.7778 131.556 55.3651C148.317 60.9524 158.476 60.4444 158.984 58.9206ZM370.794 46.7302C372.825 46.2222 388.571 38.6032 413.46 33.5238C438.349 27.9365 458.667 30.9841 458.667 29.4603C458.667 27.9365 453.587 24.8889 427.175 27.9365C400.762 30.9841 368.762 47.2381 370.794 46.7302ZM363.683 34.0317C364.698 34.5397 380.952 27.4286 392.635 25.3968C404.317 23.873 402.286 22.8571 402.286 22.3492C402.286 21.8413 396.698 21.3333 388.571 23.3651C379.937 25.9048 362.667 33.5238 363.683 34.0317ZM475.429 22.3492C475.937 23.3651 493.206 26.4127 503.873 31.4921C514.54 36.5714 513.016 34.5397 513.524 34.0317C514.032 33.5238 509.46 29.9683 501.333 27.4286C493.206 24.381 474.921 21.3333 475.429 22.3492ZM332.19 56.381C331.683 57.9048 333.714 58.9206 341.841 55.3651C349.968 51.8095 355.048 48.7619 353.016 49.2698C350.984 49.7778 348.444 51.3016 340.317 53.3333C331.683 55.3651 332.698 54.8571 332.19 56.381ZM175.238 62.9841C174.222 62.9841 185.905 67.0476 192 67.5555C198.095 68.0635 202.159 68.0635 202.159 66.5397C202.159 65.0159 201.651 64 194.032 64.5079C185.905 65.0159 176.254 62.9841 175.238 62.9841ZM773.079 107.175C772.571 107.683 760.889 105.651 734.984 105.651C709.587 105.651 665.905 93.4603 647.619 87.873C629.333 82.2857 698.413 107.683 731.429 108.698C764.444 109.714 773.587 106.667 773.079 107.175Z" fill="#F7E5FF"/>
<path d="M780.466 135.797C779.958 135.289 757.101 137.321 743.894 135.797C706.815 132.242 657.545 119.543 659.577 121.067C661.609 122.591 729.164 136.813 745.926 137.829C770.815 139.861 780.974 136.305 780.466 135.797Z" fill="black"/>
<path d="M1369.4 89.6441C1368.89 89.1461 1346.03 91.1382 1332.83 89.6441C1295.75 86.158 1246.48 73.7074 1248.51 75.2015C1250.54 76.6955 1318.1 90.6402 1334.86 91.6362C1359.75 93.6283 1369.9 89.6441 1369.4 89.6441Z" fill="black"/>
<path d="M1155.05 48.8063C1154.03 48.3083 1132.19 43.826 1106.79 42.83C1081.4 41.834 1042.29 45.8181 1044.32 45.3201C1045.84 44.8221 1074.29 36.3557 1111.87 39.3438C1149.46 42.332 1156.06 49.3043 1155.05 48.8063Z" fill="black"/>
<path d="M1038.73 66.7351C1038.22 66.2371 1048.89 61.7549 1054.98 61.2568C1061.08 60.7588 1065.14 61.2568 1065.14 62.7509C1065.14 64.245 1064.63 65.241 1057.02 64.743C1048.38 64.245 1039.24 67.2331 1038.73 66.7351Z" fill="black"/>
<path d="M1020.95 52.7905C1020.95 52.2925 998.603 58.7668 988.952 63.747C979.302 68.2292 957.46 79.1857 957.968 79.1857C958.476 79.6838 979.302 71.2174 989.968 66.2371C1000.63 61.2569 1020.95 53.2885 1020.95 52.7905Z" fill="black"/>
<path d="M212.825 96.1186C212.825 96.1186 218.921 94.6245 227.556 95.6205C236.191 96.6166 257.016 100.103 269.206 99.1067C290.54 97.1146 306.794 85.6601 304.762 86.1581C302.73 86.1581 282.921 97.1146 261.079 95.6205C251.937 95.1225 235.175 93.1304 227.048 93.6284C218.921 94.1265 212.825 96.1186 212.825 96.1186Z" fill="black"/>
<path d="M383.492 62.751C384.508 63.249 393.651 58.7668 405.333 57.2728C417.016 56.2767 416 55.7787 416 54.7827C416 54.2846 406.857 52.7906 398.73 54.7827C390.603 57.2728 382.476 62.253 383.492 62.751Z" fill="black"/>
<path d="M79.2381 65.739C79.2381 65.241 101.079 65.739 113.27 68.2291C125.46 70.7192 138.667 77.6915 138.667 78.1896C138.667 78.6876 124.952 74.2054 112.762 71.2172C101.079 68.2291 79.746 66.237 79.2381 65.739Z" fill="black"/>
</g>
<defs>
<clipPath id="clip0_171_1828">
<rect width="1440" height="138.45" fill="white"/>
</clipPath>
</defs>
</svg>
