<svg width="59" height="80" viewBox="0 0 59 80" fill="none" xmlns="http://www.w3.org/2000/svg">
<path d="M42.2465 55.4881L47.0193 77.4461L30.3146 67.9005L13.6098 77.4461L18.3826 55.4881" fill="#202020"/>
<path d="M30.3146 58.3552C44.8122 58.3552 56.5649 46.6025 56.5649 32.1049C56.5649 17.6072 44.8122 5.85449 30.3146 5.85449C15.8169 5.85449 4.06421 17.6072 4.06421 32.1049C4.06421 46.6025 15.8169 58.3552 30.3146 58.3552Z" fill="#202020"/>
<path d="M42.2465 55.4881L47.0193 77.4461L30.3146 67.9005L13.6098 77.4461L18.3826 55.4881M56.5649 32.1049C56.5649 46.6025 44.8122 58.3552 30.3146 58.3552C15.8169 58.3552 4.06421 46.6025 4.06421 32.1049C4.06421 17.6072 15.8169 5.85449 30.3146 5.85449C44.8122 5.85449 56.5649 17.6072 56.5649 32.1049Z" stroke="#202020" stroke-width="4" stroke-linecap="round" stroke-linejoin="round"/>
<path d="M40.1827 52.3926L44.9554 74.3506L28.2507 64.805L11.5459 74.3506L16.3187 52.3926" fill="#F7E5FD"/>
<path d="M40.1827 52.3926L44.9554 74.3506L28.2507 64.805L11.5459 74.3506L16.3187 52.3926" stroke="#202020" stroke-width="4" stroke-linecap="round" stroke-linejoin="round"/>
<path d="M28.2506 55.2595C42.7483 55.2595 54.501 43.5068 54.501 29.0091C54.501 14.5115 42.7483 2.75879 28.2506 2.75879C13.7529 2.75879 2.00024 14.5115 2.00024 29.0091C2.00024 43.5068 13.7529 55.2595 28.2506 55.2595Z" fill="#E09CF7" stroke="#202020" stroke-width="4" stroke-linecap="round" stroke-linejoin="round"/>
<path d="M24.1228 18.9478H26.5092C27.1421 18.9478 27.7491 19.1992 28.1966 19.6467C28.6442 20.0942 28.8956 20.7012 28.8956 21.3342V38.0389M24.1228 38.0389H33.6684" stroke="#202020" stroke-width="4" stroke-linecap="round" stroke-linejoin="round"/>
</svg>
