<svg width="79" height="96" viewBox="0 0 79 96" fill="none" xmlns="http://www.w3.org/2000/svg">
<path d="M40.274 40.9137V7.39615L8.6657 50.0355L19.2725 74.5019H65.8718L76.3372 49.5406L45.6481 6.97192V40.9137C49.1366 42.163 55.0811 46.6555 50.9515 54.6319C46.8219 62.6082 40.604 60.6895 38.0112 58.7332C28.2812 50.9265 35.4656 43.6008 40.274 40.9137Z" fill="#202020"/>
<path fill-rule="evenodd" clip-rule="evenodd" d="M19.0726 74.356L9.55559 53.2127C9.16527 52.3656 9.00506 51.4305 9.09127 50.5017C9.17796 49.5675 9.51079 48.673 10.0558 47.9094L10.0616 47.9013L40.3429 6.60498L40.2404 35.9515C40.2295 39.0712 37.8612 41.6311 35.6476 43.8294C31.8049 47.6453 31.7832 53.8538 35.5991 57.6965C39.4151 61.5392 45.6236 61.5609 49.4663 57.7449C53.309 53.929 53.3307 47.7205 49.5147 43.8778C48.212 42.5659 46.6304 41.6994 44.9594 41.2789L45.0804 6.62152L75.0544 48.1117C75.5917 48.8771 75.9201 49.7694 76.0075 50.7005C76.0949 51.6315 75.938 52.5693 75.5525 53.4213L75.5476 53.4321L65.8791 74.5173L65.8326 87.8182L65.8326 87.8283C65.8342 88.5335 65.6963 89.232 65.4266 89.8837C65.1556 90.5384 64.7572 91.1327 64.2544 91.632C63.7516 92.1313 63.1545 92.5257 62.4978 92.792C61.8444 93.0571 61.1451 93.1902 60.4401 93.1837L60.4296 93.1836L24.3811 93.0578C23.6761 93.0594 22.9777 92.9214 22.3262 92.6518C21.6714 92.3808 21.0771 91.9824 20.5778 91.4795C20.0785 90.9767 19.6842 90.3796 19.4178 89.723C19.1527 89.0696 19.0196 88.3702 19.0261 87.6651L19.0726 74.356Z" fill="#202020"/>
<path d="M19.0726 74.356L9.55559 53.2127C9.16527 52.3656 9.00506 51.4305 9.09127 50.5017C9.17796 49.5675 9.51079 48.673 10.0558 47.9094L10.0616 47.9013L40.3429 6.60498L40.2404 35.9515C40.2295 39.0712 37.8612 41.6311 35.6476 43.8294V43.8294C31.8049 47.6453 31.7832 53.8538 35.5991 57.6965C39.4151 61.5392 45.6236 61.5609 49.4663 57.7449C53.309 53.929 53.3307 47.7205 49.5147 43.8778C48.212 42.5659 46.6304 41.6994 44.9594 41.2789L45.0804 6.62152L75.0544 48.1117C75.5917 48.8771 75.9201 49.7694 76.0075 50.7005C76.0949 51.6315 75.938 52.5693 75.5525 53.4213L75.5476 53.4321L65.8791 74.5173M19.0726 74.356L19.0261 87.6651C19.0196 88.3702 19.1527 89.0696 19.4178 89.723C19.6842 90.3796 20.0785 90.9767 20.5778 91.4795C21.0771 91.9824 21.6714 92.3808 22.3262 92.6518C22.9777 92.9214 23.6761 93.0594 24.3811 93.0578L60.4296 93.1836L60.4401 93.1837C61.1451 93.1902 61.8444 93.0571 62.4978 92.792C63.1545 92.5257 63.7516 92.1313 64.2544 91.6321C64.7572 91.1327 65.1556 90.5384 65.4266 89.8837C65.6963 89.232 65.8342 88.5335 65.8326 87.8283L65.8326 87.8182L65.8791 74.5173M19.0726 74.356L65.8791 74.5173" stroke="#202020" stroke-width="4" stroke-linecap="round" stroke-linejoin="round"/>
<path d="M59.0574 71.1982H12.8733V85.271C12.8733 88.2391 14.9629 89.1943 16.0077 89.3009H55.2834C57.8932 89.3009 58.8868 86.2305 59.0574 84.6953V71.1982Z" fill="#F7E5FD"/>
<path d="M33.5531 37.2341V3.71646L1.94479 46.3558L12.5516 70.8222H59.1509L69.6163 45.8609L38.9272 3.29224V37.2341C42.4157 38.4833 48.3602 42.9758 44.2306 50.9522C40.101 58.9285 33.8831 57.0098 31.2903 55.0535C21.5603 47.2469 28.7447 39.9211 33.5531 37.2341Z" fill="#E09CF7"/>
<path d="M12.3517 70.6763L2.83469 49.533C2.44437 48.6859 2.28416 47.7509 2.37036 46.822C2.45706 45.8878 2.78989 44.9933 3.33491 44.2297L3.34072 44.2216L33.622 2.92529L33.501 37.5824C31.8267 37.9912 30.2387 38.8467 28.9267 40.1497C25.084 43.9656 25.0623 50.1742 28.8782 54.0168C32.6942 57.8595 38.9027 57.8812 42.7454 54.0653C46.5881 50.2493 46.6098 44.0408 42.7938 40.1981C41.4911 38.8862 39.9095 38.0197 38.2385 37.5992L38.3595 2.94183L68.3335 44.432C68.8708 45.1974 69.1992 46.0897 69.2866 47.0208C69.374 47.9518 69.2171 48.8896 68.8316 49.7416L68.8267 49.7524L59.1582 70.8376M12.3517 70.6763L12.3052 83.9855C12.2987 84.6905 12.4318 85.3899 12.6969 86.0433C12.9633 86.6999 13.3576 87.297 13.8569 87.7999C14.3562 88.3027 14.9505 88.7011 15.6053 88.9721C16.2568 89.2417 16.9552 89.3797 17.6602 89.3781L53.7087 89.5039L53.7192 89.504C54.4242 89.5105 55.1235 89.3774 55.7769 89.1124C56.4336 88.846 57.0307 88.4517 57.5335 87.9524C58.0363 87.4531 58.4347 86.8587 58.7057 86.204C58.9754 85.5523 59.1133 84.8538 59.1117 84.1486L59.1117 84.1385L59.1582 70.8376M12.3517 70.6763L59.1582 70.8376" stroke="#202020" stroke-width="4" stroke-linecap="round" stroke-linejoin="round"/>
</svg>
