<svg width="96" height="95" viewBox="0 0 96 95" fill="none" xmlns="http://www.w3.org/2000/svg">
<path d="M52.7256 49.8523C64.6201 49.8523 74.2624 40.21 74.2624 28.3156C74.2624 16.4211 64.6201 6.77881 52.7256 6.77881C40.8312 6.77881 31.1889 16.4211 31.1889 28.3156C31.1889 40.21 40.8312 49.8523 52.7256 49.8523Z" fill="#202020" stroke="#202020" stroke-width="4" stroke-linecap="round" stroke-linejoin="round"/>
<path d="M93.6784 92.9255C90.8964 84.2502 85.4313 76.6825 78.0711 71.3134C70.7109 65.9444 61.8358 63.0513 52.7254 63.0513C43.615 63.0513 34.74 65.9444 27.3798 71.3134C20.0196 76.6825 14.5545 84.2502 11.7725 92.9255H93.6784Z" fill="#202020" stroke="#202020" stroke-width="4" stroke-linecap="round" stroke-linejoin="round"/>
<path d="M43.1219 45.9988C55.0163 45.9988 64.6587 36.3565 64.6587 24.4621C64.6587 12.5676 55.0163 2.92529 43.1219 2.92529C31.2275 2.92529 21.5851 12.5676 21.5851 24.4621C21.5851 36.3565 31.2275 45.9988 43.1219 45.9988Z" fill="#DAFACC" stroke="#202020" stroke-width="4" stroke-linecap="round" stroke-linejoin="round"/>
<path d="M84.0747 89.0719C81.2927 80.3967 75.8276 72.829 68.4674 67.4599C61.1072 62.0909 52.2321 59.1978 43.1217 59.1978C34.0113 59.1978 25.1362 62.0909 17.776 67.4599C10.4158 72.829 4.95077 80.3967 2.16873 89.0719H84.0747Z" fill="#BDF4A4" stroke="#202020" stroke-width="4" stroke-linecap="round" stroke-linejoin="round"/>
</svg>
