<svg width="94" height="94" viewBox="0 0 94 94" fill="none" xmlns="http://www.w3.org/2000/svg">
<path d="M74.3869 93.6132H16.0666C14.348 93.6132 12.6997 92.9305 11.4845 91.7153C10.2693 90.5 9.58655 88.8518 9.58655 87.1332V15.8528C9.58655 14.1342 10.2693 12.486 11.4845 11.2708C12.6997 10.0555 14.348 9.3728 16.0666 9.3728H87.3469C89.0656 9.3728 90.7138 10.0555 91.929 11.2708C93.1442 12.486 93.827 14.1342 93.827 15.8528V87.1332C93.827 88.8518 93.1442 90.5 91.929 91.7153C90.7138 92.9305 89.0656 93.6132 87.3469 93.6132H74.3869Z" fill="#202020"/>
<path d="M66.8205 87.1657H8.50017C6.78156 87.1657 5.13334 86.483 3.9181 85.2678C2.70286 84.0525 2.02014 82.4043 2.02014 80.6857V9.40532C2.02014 7.68671 2.70286 6.03849 3.9181 4.82325C5.13334 3.60801 6.78156 2.92529 8.50017 2.92529H79.7805C81.4991 2.92529 83.1474 3.60801 84.3626 4.82325C85.5778 6.03849 86.2606 7.68671 86.2606 9.40532V80.6857C86.2606 82.4043 85.5778 84.0525 84.3626 85.2678C83.1474 86.483 81.4991 87.1657 79.7805 87.1657H66.8205Z" fill="#EBF4FF" stroke="#202020" stroke-width="4" stroke-linecap="round" stroke-linejoin="round"/>
<path d="M2.02002 22.3652H86.2604" stroke="#202020" stroke-width="4" stroke-linecap="round" stroke-linejoin="round"/>
<path d="M63.887 54.9377H24.1569C25.9674 71.4332 38.8252 75.1381 45.0278 74.9287C59.914 74.0234 63.8032 61.2242 63.887 54.9377Z" fill="#EBF4FF" stroke="#EBF4FF" stroke-width="4"/>
<path d="M24.1568 55.0447H63.8869C62.0764 38.5493 49.2186 34.8443 43.016 35.0537C28.1298 35.959 24.2406 48.7582 24.1568 55.0447Z" fill="#EBF4FF" stroke="#EBF4FF" stroke-width="4"/>
<path d="M44.251 74.7877C55.2255 74.7877 64.122 65.8911 64.122 54.9167C64.122 43.9422 55.2255 35.0457 44.251 35.0457C33.2765 35.0457 24.38 43.9422 24.38 54.9167C24.38 65.8911 33.2765 74.7877 44.251 74.7877Z" fill="#89BFFF" stroke="#202020" stroke-width="4" stroke-linecap="round" stroke-linejoin="round"/>
<path d="M44.251 74.7877C55.2255 74.7877 64.122 65.8911 64.122 54.9167C64.122 43.9422 55.2255 35.0457 44.251 35.0457C33.2765 35.0457 24.38 43.9422 24.38 54.9167C24.38 65.8911 33.2765 74.7877 44.251 74.7877Z" stroke="#202020" stroke-width="4" stroke-linecap="round" stroke-linejoin="round"/>
<path d="M24.38 54.917H64.122" stroke="#202020" stroke-width="4" stroke-linecap="round" stroke-linejoin="round"/>
<path d="M51.8941 54.9167C51.5187 62.1833 48.8422 69.1423 44.2514 74.7877C39.6607 69.1423 36.9841 62.1833 36.6087 54.9167C36.9841 47.65 39.6607 40.691 44.2514 35.0457C48.8422 40.691 51.5187 47.65 51.8941 54.9167V54.9167Z" stroke="#202020" stroke-width="4" stroke-linecap="round" stroke-linejoin="round"/>
</svg>
