<svg width="15" height="15" viewBox="0 0 15 15" fill="none" xmlns="http://www.w3.org/2000/svg">
<path d="M0.897123 7.83537C0.768702 7.80881 0.693354 7.69457 0.696377 7.55106C0.699401 7.40752 0.779578 7.29619 0.90915 7.27479C3.13627 6.90707 4.61089 6.43303 5.62111 5.49538C6.63386 4.55538 7.15389 3.17421 7.54068 1.06517C7.56409 0.937548 7.68596 0.851298 7.85304 0.851318C8.02012 0.851337 8.142 0.937619 8.16539 1.06525C8.53667 3.09131 9.0314 4.44559 9.9683 5.38225C10.9052 6.31889 12.2598 6.81353 14.2861 7.18514C14.4137 7.20854 14.4999 7.33042 14.4999 7.4975C14.4999 7.66458 14.4136 7.78646 14.286 7.80984C12.2599 8.18113 10.9056 8.67586 9.96901 9.61275C9.03237 10.5496 8.53773 11.9043 8.16611 13.9306C8.14363 14.0532 8.01549 14.1466 7.82579 14.1485C7.63624 14.1504 7.50081 14.059 7.47251 13.9349C7.00513 11.884 6.34358 10.5504 5.2911 9.63234C4.24221 8.71739 2.82617 8.23436 0.897123 7.83537Z" fill="#202020" stroke="#202020" stroke-width="0.328246"/>
</svg>
